<svg xmlns="http://www.w3.org/2000/svg" xmlns:xlink="http://www.w3.org/1999/xlink" viewBox="0 0 156 2808" width="156px" height="2808px">

  <!-- CSS -->
  <style>
    .icon {
      stroke-width: 0;
      fill: #909090;
    }
    .icon--blue {
      fill: #59b6e3;
    }
    .icon--white {
      fill: #ffffff;
    }
  </style>

  <!-- Sprites Symbol -->
  <symbol id="facebook">
    <path class="circle" d="M85.6212627,129.709121 L85.6212627,82.8585148 L101.346849,82.8585148 L103.701532,64.6000022 L85.6212627,64.6000022 L85.6212627,52.9430955 C85.6212627,47.6568348 87.0891844,44.0544225 94.6696124,44.0544225 L104.338085,44.0501976 L104.338085,27.7196375 C102.665959,27.4971273 96.9266534,27 90.2494173,27 C76.3095603,27 66.7659572,35.5089035 66.7659572,51.1348479 L66.7659572,64.6000022 L51,64.6000022 L51,82.8585148 L66.7659572,82.8585148 L66.7659572,129.709121 L85.6212627,129.709121 Z"></path>
    <path class="form" d="M156,78 C156,34.9217895 121.07821,0 78,0 C34.9217895,0 0,34.9217895 0,78 C0,121.07821 34.9217895,156 78,156 C121.07821,156 156,121.07821 156,78 Z M4,78 C4,37.1309285 37.1309285,4 78,4 C118.869071,4 152,37.1309285 152,78 C152,118.869071 118.869071,152 78,152 C37.1309285,152 4,118.869071 4,78 Z"></path>
  </symbol>

  <symbol id="instagram">
    <path class="circle" d="M156,78 C156,34.9217895 121.07821,0 78,0 C34.9217895,0 0,34.9217895 0,78 C0,121.07821 34.9217895,156 78,156 C121.07821,156 156,121.07821 156,78 Z M4,78 C4,37.1309285 37.1309285,4 78,4 C118.869071,4 152,37.1309285 152,78 C152,118.869071 118.869071,152 78,152 C37.1309285,152 4,118.869071 4,78 Z"></path>
    <path class="form" d="M78.0000873,34 C66.0503175,34 64.5519241,34.0506509 59.8588563,34.2647819 C55.1755693,34.478389 51.9770523,35.2222586 49.1783281,36.3100303 C46.2849391,37.4343057 43.831165,38.938812 41.3849012,41.3849012 C38.938812,43.831165 37.4343057,46.2849391 36.3100303,49.1783281 C35.2222586,51.9770523 34.478389,55.1755693 34.2647819,59.8588563 C34.0506509,64.5519241 34,66.0503175 34,78.0000873 C34,89.9496825 34.0506509,91.4480759 34.2647819,96.1411437 C34.478389,100.824431 35.2222586,104.022948 36.3100303,106.821672 C37.4343057,109.715061 38.938812,112.168835 41.3849012,114.615099 C43.831165,117.061188 46.2849391,118.565694 49.1783281,119.690144 C51.9770523,120.777741 55.1755693,121.521611 59.8588563,121.735218 C64.5519241,121.949349 66.0503175,122 78.0000873,122 C89.9496825,122 91.4480759,121.949349 96.1411437,121.735218 C100.824431,121.521611 104.022948,120.777741 106.821672,119.690144 C109.715061,118.565694 112.168835,117.061188 114.615099,114.615099 C117.061188,112.168835 118.565694,109.715061 119.690144,106.821672 C120.777741,104.022948 121.521611,100.824431 121.735218,96.1411437 C121.949349,91.4480759 122,89.9496825 122,78.0000873 C122,66.0503175 121.949349,64.5519241 121.735218,59.8588563 C121.521611,55.1755693 120.777741,51.9770523 119.690144,49.1783281 C118.565694,46.2849391 117.061188,43.831165 114.615099,41.3849012 C112.168835,38.938812 109.715061,37.4343057 106.821672,36.3100303 C104.022948,35.2222586 100.824431,34.478389 96.1411437,34.2647819 C91.4480759,34.0506509 89.9496825,34 78.0000873,34 Z M78.0000873,41.9279138 C89.7484762,41.9279138 91.1401533,41.9728009 95.7797758,42.1844868 C100.069732,42.380104 102.399499,43.0969016 103.949941,43.6994727 C106.003747,44.497661 107.469479,45.4511205 109.009092,46.9909078 C110.54888,48.5305205 111.502339,49.9962528 112.300527,52.0500594 C112.903098,53.600501 113.619896,55.9302677 113.815513,60.2202242 C114.027199,64.8598467 114.072086,66.2515238 114.072086,78.0000873 C114.072086,89.7484762 114.027199,91.1401533 113.815513,95.7797758 C113.619896,100.069732 112.903098,102.399499 112.300527,103.949941 C111.502339,106.003747 110.54888,107.469479 109.009092,109.009092 C107.469479,110.54888 106.003747,111.502339 103.949941,112.300527 C102.399499,112.903098 100.069732,113.619896 95.7797758,113.815513 C91.140852,114.027199 89.7493495,114.072086 78.0000873,114.072086 C66.2506505,114.072086 64.8593227,114.027199 60.2202242,113.815513 C55.9302677,113.619896 53.600501,112.903098 52.0500594,112.300527 C49.9962528,111.502339 48.5305205,110.54888 46.9909078,109.009092 C45.4512952,107.469479 44.497661,106.003747 43.6994727,103.949941 C43.0969016,102.399499 42.380104,100.069732 42.1844868,95.7797758 C41.9728009,91.1401533 41.9279138,89.7484762 41.9279138,78.0000873 C41.9279138,66.2515238 41.9728009,64.8598467 42.1844868,60.2202242 C42.380104,55.9302677 43.0969016,53.600501 43.6994727,52.0500594 C44.497661,49.9962528 45.4511205,48.5305205 46.9909078,46.9909078 C48.5305205,45.4511205 49.9962528,44.497661 52.0500594,43.6994727 C53.600501,43.0969016 55.9302677,42.380104 60.2202242,42.1844868 C64.8598467,41.9728009 66.2515238,41.9279138 78.0000873,41.9279138 Z M78.0000873,55.4054196 C65.5212775,55.4054196 55.4054196,65.5212775 55.4054196,78.0000873 C55.4054196,90.4787225 65.5212775,100.59458 78.0000873,100.59458 C90.4787225,100.59458 100.59458,90.4787225 100.59458,78.0000873 C100.59458,65.5212775 90.4787225,55.4054196 78.0000873,55.4054196 Z M78.0000873,92.6666667 C69.8997858,92.6666667 63.3333333,86.1002142 63.3333333,78.0000873 C63.3333333,69.8997858 69.8997858,63.3333333 78.0000873,63.3333333 C86.1002142,63.3333333 92.6666667,69.8997858 92.6666667,78.0000873 C92.6666667,86.1002142 86.1002142,92.6666667 78.0000873,92.6666667 Z M106.767353,54.5127411 C106.767353,57.4288357 104.403353,59.7926608 101.487259,59.7926608 C98.571339,59.7926608 96.2073392,57.4288357 96.2073392,54.5127411 C96.2073392,51.5966466 98.571339,49.2326468 101.487259,49.2326468 C104.403353,49.2326468 106.767353,51.5966466 106.767353,54.5127411 Z"></path>
  </symbol>

  <symbol id="twitter">
    <path class="circle" d="M130.796002,44.3383079 C126.945424,46.0918464 122.799594,47.2776926 118.450778,47.8075388 C122.89186,45.0826156 126.29956,40.7618463 127.904993,35.6147693 C123.746861,38.1378462 119.152002,39.9733847 114.243438,40.9573848 C110.331349,36.6744616 104.740014,34 98.5520248,34 C86.6865855,34 77.0601405,43.8715387 77.0601405,56.0453851 C77.0601405,57.7736928 77.244673,59.451539 77.613738,61.0663083 C59.7448417,60.1453852 43.9058028,51.3776927 33.2951845,38.0243078 C31.4437085,41.2916925 30.3857222,45.0826156 30.3857222,49.1195388 C30.3857222,56.764462 34.1809405,63.5136929 39.9506564,67.4686161 C36.4322369,67.3613853 33.110652,66.3584622 30.2073408,64.7184622 L30.2073408,64.989693 C30.2073408,75.674924 37.6193959,84.5876934 47.4611288,86.6061549 C45.6588615,87.1233857 43.7581768,87.3820011 41.7959813,87.3820011 C40.4119876,87.3820011 39.0587493,87.2495396 37.7485687,86.9909242 C40.4858006,95.7460013 48.4206978,102.123078 57.8318549,102.293386 C50.4751595,108.210002 41.1993263,111.736002 31.1300033,111.736002 C29.3953979,111.736002 27.6792457,111.635079 26,111.433232 C35.5157255,117.677848 46.8214162,121.330002 58.9575031,121.330002 C98.5089672,121.330002 120.130024,87.7415396 120.130024,58.6063082 C120.130024,57.647539 120.111571,56.6887697 120.074664,55.7489235 C124.275854,52.6392312 127.923446,48.7600003 130.796002,44.3383079"></path>
    <path class="form" d="M156,78 C156,34.9217895 121.07821,0 78,0 C34.9217895,0 0,34.9217895 0,78 C0,121.07821 34.9217895,156 78,156 C121.07821,156 156,121.07821 156,78 Z M4,78 C4,37.1309285 37.1309285,4 78,4 C118.869071,4 152,37.1309285 152,78 C152,118.869071 118.869071,152 78,152 C37.1309285,152 4,118.869071 4,78 Z"></path>
  </symbol>

  <symbol id="mail">
    <path class="circle" d="M156,78 C156,34.9217895 121.07821,0 78,0 C34.9217895,0 0,34.9217895 0,78 C0,121.07821 34.9217895,156 78,156 C121.07821,156 156,121.07821 156,78 Z M4,78 C4,37.1309285 37.1309285,4 78,4 C118.869071,4 152,37.1309285 152,78 C152,118.869071 118.869071,152 78,152 C37.1309285,152 4,118.869071 4,78 Z"></path>
    <path class="form" d="M115.915727,48.2318965 C115.300833,48.0803817 114.657981,48 113.99638,48 L42.00362,48 C41.9894324,48 41.9752533,48.000037 41.9610829,48.0001108 C42.9397094,48.8847949 43.9809387,49.8252722 45.0739578,50.8115919 C49.8745438,55.1435497 54.6936612,59.4753708 59.2166233,63.5174774 C59.447407,63.7237107 59.447407,63.7237107 59.6782175,63.9299078 C65.3831369,69.0260868 70.169505,73.2603283 73.7318414,76.3518664 C75.735342,78.0905844 77.3220014,79.4418798 78.4445688,80.36356 C79.0074868,80.825742 79.4427939,81.1707478 79.728985,81.382851 C79.8271759,81.4556228 79.8885332,81.4983251 79.8878312,81.4978896 C79.3098936,81.1393645 79.0120199,80.9999991 77.9999966,81 C77.0393345,81.0000008 76.7480027,81.1289378 76.1963399,81.4526649 C76.1965214,81.4525584 76.2581254,81.4120019 76.3565339,81.3430112 C76.6425132,81.1425213 77.0775049,80.8164009 77.6401107,80.3794442 C78.7623245,79.507859 80.3486774,78.2298535 82.3518676,76.5853749 C85.9139528,73.6611532 90.7001248,69.6559536 96.4048427,64.8354143 C96.6356474,64.6403678 96.6356474,64.6403678 96.8664254,64.445287 C101.3893,60.6217471 106.20834,56.524144 111.008852,52.4264095 C112.68915,50.9921014 114.247051,49.6602779 115.643268,48.4651393 C115.736089,48.385686 115.82692,48.3079286 115.915727,48.2318965 Z M121.696048,53.8144153 C121.894027,54.5110581 122,55.2462705 122,56.0060244 L122,100.993976 C122,105.415581 118.413818,109 113.99638,109 L42.00362,109 C37.5833427,109 34,105.411908 34,100.993976 L34,56.0060244 C34,54.6981476 34.3137662,53.4635188 34.8700016,52.3732358 C34.9361603,52.4331112 35.003406,52.4939661 35.0717255,52.5557881 C36.470608,53.8216321 38.031256,55.2320426 39.7144314,56.7509081 C44.5238378,61.0908253 49.3521141,65.4308792 53.8857477,69.4825226 C54.1171722,69.6893285 54.1171722,69.6893285 54.3486362,69.8961096 C75.5340686,88.8209613 75.7403746,89.0000019 78.0000034,89 C80.1871816,88.9999981 80.7353533,88.5499877 101.568304,70.945952 C101.799772,70.7503442 101.799772,70.7503442 102.031202,70.554713 C106.564924,66.7220029 111.393277,62.616481 116.202758,58.5110905 C117.885958,57.0743049 119.44663,55.7401127 120.845535,54.5426732 C121.150883,54.2813005 121.434784,54.0382028 121.696048,53.8144153 Z"></path>
  </symbol>

  <symbol id="user">
    <path class="circle" d="M 156.0625 77.96875 C 156.0625 34.890625 121.140625 -0.03125 78.0625 -0.03125 C 34.984375 -0.03125 0.0625 34.890625 0.0625 77.96875 C 0.0625 121.046875 34.984375 155.96875 78.0625 155.96875 C 121.140625 155.96875 156.0625 121.046875 156.0625 77.96875 Z M 4.0625 77.96875 C 4.0625 37.101562 37.191406 3.96875 78.0625 3.96875 C 118.929688 3.96875 152.0625 37.101562 152.0625 77.96875 C 152.0625 118.839844 118.929688 151.96875 78.0625 151.96875 C 37.191406 151.96875 4.0625 118.839844 4.0625 77.96875 Z M 4.0625 77.96875"></path>
    <g class="form" transform="translate(31.000000, 28.000000)">
      <g id="Group">
        <path d="M47,43.5 C21.8542395,43.5 0.450690796,61.690834 0.450690796,82.6665613 C0.450690796,93.6352447 20.7157544,99.5 46.975344,99.5 C73.2349337,99.5 93.4999973,93.6352447 93.4999973,82.6665613 C93.4999973,61.6838361 72.1377569,43.5 47,43.5 Z" fill="#FFFFFF"></path>
        <path d="M46.975344,94.5 C23.7071988,94.5 5.4506908,89.2165252 5.4506908,82.6665613 C5.4506908,64.6489251 24.4517055,48.5 47,48.5 C69.5389174,48.5 88.4999973,64.6399349 88.4999973,82.6665613 C88.4999973,89.2165252 70.2434893,94.5 46.975344,94.5 Z"></path>
        <path d="M74.5,28.5 C74.5,13.036027 61.963973,0.5 46.5,0.5 C31.036027,0.5 18.5,13.036027 18.5,28.5 C18.5,43.963973 31.036027,56.5 46.5,56.5 C61.963973,56.5 74.5,43.963973 74.5,28.5 Z" fill="#FFFFFF"></path>
        <path d="M23.5,28.5 C23.5,15.7974508 33.7974508,5.5 46.5,5.5 C59.2025492,5.5 69.5,15.7974508 69.5,28.5 C69.5,41.2025492 59.2025492,51.5 46.5,51.5 C33.7974508,51.5 23.5,41.2025492 23.5,28.5 Z"></path>
      </g>
    </g>
  </symbol>

  <symbol id="linkedin">
    <path class="circle" d="M 156.0625 77.96875 C 156.0625 34.890625 121.140625 -0.03125 78.0625 -0.03125 C 34.984375 -0.03125 0.0625 34.890625 0.0625 77.96875 C 0.0625 121.046875 34.984375 155.96875 78.0625 155.96875 C 121.140625 155.96875 156.0625 121.046875 156.0625 77.96875 Z M 4.0625 77.96875 C 4.0625 37.101562 37.191406 3.96875 78.0625 3.96875 C 118.929688 3.96875 152.0625 37.101562 152.0625 77.96875 C 152.0625 118.839844 118.929688 151.96875 78.0625 151.96875 C 37.191406 151.96875 4.0625 118.839844 4.0625 77.96875 Z M 4.0625 77.96875"></path>
    <path class="form" d="M 121.492188 108.523438 L 101.800781 108.523438 L 101.800781 80.046875 C 101.800781 72.59375 98.71875 67.503906 91.945312 67.503906 C 86.765625 67.503906 83.882812 70.9375 82.542969 74.246094 C 82.039062 75.433594 82.117188 77.089844 82.117188 78.746094 L 82.117188 108.523438 L 62.609375 108.523438 C 62.609375 108.523438 62.859375 58.082031 62.609375 53.496094 L 82.117188 53.496094 L 82.117188 62.132812 C 83.269531 58.355469 89.503906 52.964844 99.453125 52.964844 C 111.796875 52.964844 121.492188 60.882812 121.492188 77.925781 Z M 42.878906 46.613281 L 42.753906 46.613281 C 36.46875 46.613281 32.390625 42.40625 32.390625 37.074219 C 32.390625 31.636719 36.585938 27.519531 43 27.519531 C 49.40625 27.519531 53.347656 31.628906 53.472656 37.058594 C 53.472656 42.390625 49.40625 46.613281 42.878906 46.613281 Z M 34.636719 53.496094 L 52.003906 53.496094 L 52.003906 108.523438 L 34.636719 108.523438 Z M 34.636719 53.496094"></path>
  </symbol>

  <!-- Use and position each symbol -->
  <use class="icon" xlink:href="#facebook" x="0" y="0"/>
  <use class="icon icon--blue" xlink:href="#facebook" x="0" y="156"/>
  <use class="icon icon--white" xlink:href="#facebook" x="0" y="312"/>

  <use class="icon" xlink:href="#instagram" x="0" y="468"/>
  <use class="icon icon--blue" xlink:href="#instagram" x="0" y="624"/>
  <use class="icon icon--white" xlink:href="#instagram" x="0" y="780"/>

  <use class="icon" xlink:href="#twitter" x="0" y="936"/>
  <use class="icon icon--blue" xlink:href="#twitter" x="0" y="1092"/>
  <use class="icon icon--white" xlink:href="#twitter" x="0" y="1248"/>

  <use class="icon" xlink:href="#mail" x="0" y="1404"/>
  <use class="icon icon--blue" xlink:href="#mail" x="0" y="1560"/>
  <use class="icon icon--white" xlink:href="#mail" x="0" y="1716"/>

  <use class="icon" xlink:href="#user" x="0" y="1872"/>
  <use class="icon icon--blue" xlink:href="#user" x="0" y="2028"/>
  <use class="icon icon--white" xlink:href="#user" x="0" y="2184"/>

  <use class="icon" xlink:href="#linkedin" x="0" y="2340"/>
  <use class="icon icon--blue" xlink:href="#linkedin" x="0" y="2496"/>
  <use class="icon icon--white" xlink:href="#linkedin" x="0" y="2652"/>
</svg>
